<?xml version="1.0" encoding="UTF-8"?>
<svg id="Layer_1" xmlns="http://www.w3.org/2000/svg" version="1.1" viewBox="0 0 499.6 160.4">
  <!-- Generator: Adobe Illustrator 30.2.0, SVG Export Plug-In . SVG Version: 2.1.1 Build 105)  -->
  <defs>
    <style>
      .st0 {
        fill: #43494e;
      }

      .st1 {
        fill: #ef4237;
      }
    </style>
  </defs>
  <rect class="st1" x="-195.5" y="1" width="141.1" height="141.1" rx="7.8" ry="7.8"/>
  <path class="st1" d="M68.5,339c0,8.2,5,13.9,11.7,13.9s12.4-4,16.9-11.2v-33.9c-20.4,11-28.6,19.7-28.6,31.1Z"/>
  <path class="st1" d="M83.9,368.6h14.5c-.8-3.2-1.3-7.3-1.3-12-5.1,5.6-9.3,9.4-13.3,12Z"/>
  <path class="st1" d="M127.3,180.6H9.4c-4.2,0-7.6,3.4-7.6,7.6v173.2c0,4.2,3.4,7.6,7.6,7.6h46.1c-7.3-5.3-11.3-15.2-11.3-28.7s5.7-25.1,20.2-34.1c6-3.7,12-6.7,32.9-15.7v-6.5c0-12.7-3.5-17.7-12.2-17.7s-12.7,5.2-13.7,17.7h-24.4c2-24.9,16.4-38.1,41.3-38.1s19.7,3,25.4,9.5c5.2,6.5,6.7,12.2,6.7,27.4v55c0,17,.4,23.2,2.2,31.1h4.9c4.2,0,7.6-3.4,7.6-7.6v-173.2c0-4.2-3.4-7.6-7.6-7.6Z"/>
  <g>
    <path class="st0" d="M194.5,108.4c-6.6,0-11.9-1.8-15.8-5.3-3.9-3.6-5.9-8.4-5.9-14.6s2.6-11.4,7.7-15.4c5.1-3.9,12.6-5.9,22.4-5.9h8.8v-4.9c0-3.2-.9-5.8-2.8-7.8-1.9-2-4.7-3-8.4-3s-3.7.2-5.2.7c-1.5.5-2.9,1.1-4.2,2l-1.4,8.8h-13l-.2-17.4c3.5-2,7.3-3.6,11.4-4.8,4.1-1.2,8.6-1.9,13.7-1.9,8.7,0,15.6,2,20.7,6.1,5.1,4.1,7.6,9.9,7.6,17.4v27.6c0,.9,0,1.8,0,2.7,0,.9,0,1.7.2,2.6l7,1v10.8h-22.4c-.5-1.2-.9-2.4-1.4-3.7-.5-1.3-.8-2.6-1-4-2.1,2.7-4.7,4.9-7.6,6.5-2.9,1.6-6.3,2.4-10.2,2.4ZM199.4,95.1c2.5,0,4.9-.6,7.2-1.7,2.3-1.1,4-2.6,5.3-4.5v-10.6h-8.9c-4,0-7,.9-9,2.7s-3.1,4-3.1,6.6.8,4.2,2.3,5.5c1.5,1.3,3.6,1.9,6.3,1.9Z"/>
    <path class="st0" d="M242,107.1v-10.8l8.7-1.9V23.4l-9.6-1.9v-10.9h27.7v83.8l8.7,1.9v10.8h-35.5Z"/>
    <path class="st0" d="M282.2,107.1v-10.8l8.7-1.9V23.4l-9.6-1.9v-10.9h27.7v83.8l8.7,1.9v10.8h-35.5Z"/>
    <path class="st0" d="M346.3,108.4c-5.3,0-9.9-1.4-13.7-4.1-3.8-2.7-6.7-6.6-8.8-11.5-2-4.9-3-10.7-3-17.3v-1.3c0-7,1-13.2,3.1-18.5,2-5.3,5-9.4,8.8-12.3,3.8-2.9,8.3-4.4,13.6-4.4s6.9.7,9.6,2.2c2.8,1.5,5.2,3.5,7.2,6.2v-24l-9.6-1.9v-10.9h27.7v83.8l8.7,1.9v10.8h-24.3l-1.4-8.2c-2.1,3.1-4.6,5.4-7.5,7-2.9,1.6-6.3,2.4-10.3,2.4ZM351.7,94.4c2.5,0,4.7-.5,6.6-1.6,1.9-1.1,3.5-2.6,4.8-4.6v-28.4c-1.2-2.1-2.8-3.8-4.7-5s-4.1-1.8-6.6-1.8-5.5.9-7.4,2.7c-1.9,1.8-3.3,4.3-4.2,7.5-.9,3.2-1.3,6.9-1.3,11.1v1.3c0,5.9,1,10.5,3,13.8,2,3.4,5.3,5,9.8,5Z"/>
    <path class="st0" d="M394.5,107.1v-10.8l8.7-1.9v-41.5l-9.6-1.9v-10.9h27.7v54.2l8.7,1.9v10.8h-35.4ZM402.6,26.1v-15.4h18.7v15.4h-18.7Z"/>
    <path class="st0" d="M462.6,108.4c-5,0-9.6-.5-13.9-1.4-4.3-.9-8.4-2.3-12.4-4.1l-.2-18.9h12.6l2.4,9.6c1.4.7,2.9,1.3,4.6,1.7,1.7.4,3.6.6,5.7.6,4,0,6.9-.7,8.5-2,1.6-1.3,2.5-3,2.5-4.9s-.9-3.5-2.6-4.9c-1.8-1.4-5.2-2.7-10.5-3.7-7.9-1.6-13.7-4.2-17.5-7.7-3.8-3.5-5.6-7.9-5.6-13.3s.9-7.1,2.8-10.1c1.9-3.1,4.7-5.5,8.6-7.4,3.9-1.9,8.8-2.8,14.8-2.8s9.6.5,13.8,1.5c4.2,1,7.7,2.2,10.5,3.8l.2,18.3h-12.5l-1.9-8.8c-1.1-.8-2.4-1.4-3.9-1.9-1.5-.4-3.2-.6-5.1-.6-3.2,0-5.6.6-7.3,1.9-1.7,1.3-2.5,2.9-2.5,4.9s.3,2.2.9,3.2c.6,1,1.8,1.9,3.6,2.8,1.8.9,4.3,1.7,7.7,2.5,8.3,1.9,14.3,4.4,18.1,7.6,3.8,3.2,5.7,7.6,5.7,13.3s-2.3,11.3-6.8,15.1-11.3,5.8-20.3,5.8Z"/>
  </g>
  <g>
    <path class="st0" d="M181.7,146c-1.5,0-2.8-.4-3.9-1.1-1.1-.8-1.9-1.8-2.5-3.2-.6-1.4-.9-2.9-.9-4.7v-.4c0-2,.3-3.8.9-5.3.6-1.5,1.4-2.7,2.5-3.5,1.1-.8,2.4-1.3,4-1.3s2.1.2,2.9.6c.9.4,1.6,1,2.2,1.8v-7.7l-2.8-.5v-2.2h6.3v24.4l2.8.5v2.2h-5.8l-.3-2.2c-.6.9-1.4,1.5-2.3,1.9s-1.9.7-3.1.7ZM182.5,143.3c1,0,1.9-.2,2.6-.7.7-.5,1.3-1.1,1.7-2v-8.7c-.4-.8-1-1.4-1.7-1.9-.7-.5-1.6-.7-2.5-.7s-2,.3-2.7.9c-.7.6-1.2,1.5-1.6,2.6-.3,1.1-.5,2.4-.5,3.8v.4c0,1.9.4,3.4,1.2,4.6.8,1.1,2,1.7,3.6,1.7Z"/>
    <path class="st0" d="M203.1,146c-1.7,0-3.3-.4-4.5-1.2-1.3-.8-2.3-1.9-3-3.3s-1.1-3-1.1-4.9v-.8c0-1.8.4-3.4,1.1-4.8.7-1.4,1.7-2.5,2.9-3.3s2.6-1.2,4-1.2,3.1.3,4.2,1c1.1.7,2,1.7,2.6,2.9.6,1.3.9,2.7.9,4.4v2.1h-12.3c0,1.3.2,2.4.6,3.3.4.9,1,1.7,1.7,2.2.8.5,1.7.8,2.7.8s2.2-.2,3.1-.5c.9-.3,1.6-.8,2.3-1.4l1.3,2.2c-.7.6-1.6,1.2-2.7,1.6-1.1.4-2.4.7-4,.7ZM198.2,134.4h8.7v-.5c0-.9-.2-1.7-.5-2.4s-.8-1.3-1.4-1.7-1.4-.6-2.4-.6-1.5.2-2.1.7c-.6.4-1.1,1.1-1.5,1.8s-.7,1.6-.8,2.6h0Z"/>
    <path class="st0" d="M220.1,146c-1.3,0-2.4-.1-3.5-.4s-2.3-.6-3.5-1.2v-4.5s2.6,0,2.6,0l.6,2.7c.6.3,1.3.5,1.9.6.6.1,1.3.2,2,.2,1.4,0,2.4-.3,3-.8.6-.5.9-1.2.9-2s-.3-1.4-.9-1.9-1.7-1-3.3-1.3c-2.3-.5-3.9-1.2-5-2.1-1.1-.9-1.6-2-1.6-3.5s.3-1.9.9-2.7c.6-.8,1.4-1.4,2.5-1.9,1.1-.5,2.3-.7,3.7-.7s2.6.2,3.7.5c1,.3,1.9.8,2.7,1.3l.2,4.3h-2.6l-.6-2.5c-.4-.3-.9-.5-1.4-.7-.6-.2-1.2-.2-1.9-.2-1.1,0-1.9.2-2.6.7s-1,1.1-1,1.9,0,.8.3,1.1c.2.3.6.6,1.1.9.5.3,1.3.5,2.4.8,2.6.6,4.4,1.4,5.5,2.3,1,1,1.6,2.1,1.6,3.5s-.6,2.9-1.8,4c-1.2,1.1-3,1.6-5.6,1.6Z"/>
    <path class="st0" d="M229.6,145.7v-2.2l2.8-.5v-13.4l-2.8-.5v-2.2h6.3v16.1l2.8.5v2.2h-9.1ZM232.3,122.2v-3.7h3.6v3.7h-3.6Z"/>
    <path class="st0" d="M248.5,153.3c-.9,0-1.9-.1-2.9-.4-1.1-.2-2-.6-2.8-1l.9-2.7c.6.3,1.4.6,2.3.8.9.2,1.7.3,2.5.3,1.5,0,2.7-.4,3.4-1.3s1.1-2.1,1.1-3.7v-1.8c-.6.8-1.4,1.4-2.2,1.8-.9.4-1.8.6-3,.6s-2.9-.4-4-1.1c-1.1-.8-2-1.8-2.6-3.2-.6-1.4-.9-2.9-.9-4.7v-.4c0-2,.3-3.8.9-5.3.6-1.5,1.5-2.7,2.6-3.5,1.1-.8,2.4-1.3,4-1.3s2.2.2,3.1.7c.9.5,1.6,1.1,2.2,2l.3-2.4h2.9v18.6c0,1.6-.3,3-.9,4.2-.6,1.2-1.5,2.1-2.7,2.7-1.2.6-2.6.9-4.2.9ZM248.6,143.3c1,0,1.9-.2,2.6-.7s1.3-1.1,1.7-2v-8.7c-.4-.8-1-1.4-1.7-1.9-.7-.5-1.6-.7-2.6-.7s-2,.3-2.7.9c-.7.6-1.3,1.5-1.6,2.6s-.5,2.4-.5,3.8v.4c0,1.9.4,3.4,1.2,4.6.8,1.1,2,1.7,3.7,1.7ZM255.8,129.7l-1.3-2.8h4.2v2.2l-2.8.6Z"/>
    <path class="st0" d="M260.6,145.7v-2.2l2.8-.5v-13.4l-2.8-.5v-2.2h5.9l.2,2.8c.6-1,1.4-1.8,2.4-2.3s2-.8,3.2-.8c2,0,3.6.6,4.7,1.8,1.1,1.2,1.7,3,1.7,5.5v9.2l2.8.5v2.2h-9.1v-2.2l2.8-.5v-9.1c0-1.7-.3-2.8-1-3.5-.7-.7-1.7-1-3-1s-1.9.2-2.6.7-1.4,1.1-1.8,1.9v11l2.8.5v2.2h-9.1Z"/>
    <path class="st0" d="M301.1,146c-1.7,0-3.1-.3-4.4-.9-1.2-.6-2.2-1.5-2.9-2.5-.7-1.1-1-2.3-1-3.7s.4-2.6,1.2-3.6,2-2.1,3.5-3.1c0,0,0,0,0,0s0,0,0,0c-.9-1.1-1.6-2.2-2-3.1-.4-.9-.7-1.8-.7-2.8s.3-2.4.8-3.3,1.2-1.6,2.2-2.1c1-.5,2.1-.7,3.4-.7s2.3.2,3.2.7,1.7,1.1,2.2,1.9.8,1.7.8,2.7-.3,2.1-.9,2.9-1.5,1.7-2.7,2.5l-1.9,1.4,5.9,7.1c.5-.8.8-1.6,1.1-2.5.3-.9.4-1.9.4-2.9h3.1c0,1.5-.2,2.9-.7,4.2-.5,1.3-1.1,2.5-2,3.5l3.2,3.9h0c0,0-4,0-4,0l-1.5-1.8c-.9.7-2,1.2-3.1,1.6-1.1.4-2.3.5-3.5.5ZM301.1,143.4c.8,0,1.7-.1,2.5-.4.8-.3,1.6-.7,2.3-1.2l-6.3-7.6-.7.5c-1.1.8-1.8,1.5-2.1,2.3-.3.7-.5,1.4-.5,1.9,0,1.3.4,2.4,1.2,3.2.8.8,2,1.3,3.6,1.3ZM300.3,130.2l2.4-1.7c.7-.4,1.1-.9,1.3-1.4.2-.5.4-1.1.4-1.7s-.3-1.3-.8-1.9c-.6-.5-1.3-.8-2.2-.8s-1.7.3-2.2,1c-.5.7-.8,1.5-.8,2.4s.2,1.3.5,1.9c.3.7.8,1.4,1.4,2.2Z"/>
    <path class="st0" d="M323.5,152.9v-2.2l2.7-.5v-20.6l-2.8-.5v-2.2h5.8l.3,2.3c.6-.9,1.4-1.5,2.3-2,.9-.5,1.9-.7,3.1-.7s2.9.4,4,1.3c1.1.8,1.9,2,2.5,3.5.6,1.5.9,3.3.9,5.3v.4c0,1.8-.3,3.4-.9,4.7-.6,1.4-1.4,2.4-2.5,3.2-1.1.8-2.4,1.1-3.9,1.1s-2.2-.2-3.1-.6-1.6-1-2.2-1.7v6.5l3,.5v2.2h-9.1ZM333.9,143.4c1.6,0,2.8-.6,3.7-1.8.8-1.2,1.3-2.7,1.3-4.6v-.4c0-1.4-.2-2.7-.6-3.8s-.9-2-1.7-2.6c-.7-.6-1.7-.9-2.8-.9s-1.8.2-2.5.7-1.3,1-1.7,1.8v9.2c.4.8,1,1.4,1.7,1.8.7.4,1.5.6,2.5.6Z"/>
    <path class="st0" d="M344,145.7v-2.2l2.8-.5v-13.4l-2.8-.5v-2.2h5.9l.3,2.4v.3c.6-1,1.2-1.7,2-2.3.8-.5,1.7-.8,2.7-.8s.7,0,1.1,0c.4,0,.6.1.8.2l-.5,3.2h-2.4c-.9-.2-1.7,0-2.3.5s-1.1,1.1-1.4,1.9v10.7l2.8.5v2.2h-9.1Z"/>
    <path class="st0" d="M366.5,146c-1.7,0-3.2-.4-4.5-1.2-1.3-.8-2.2-1.9-2.9-3.4-.7-1.4-1-3.1-1-4.9v-.4c0-1.9.3-3.5,1-4.9.7-1.4,1.7-2.6,2.9-3.4,1.3-.8,2.7-1.2,4.5-1.2s3.2.4,4.5,1.2c1.3.8,2.2,2,2.9,3.4.7,1.4,1,3.1,1,5v.4c0,1.9-.3,3.5-1,5-.7,1.4-1.7,2.6-2.9,3.4-1.3.8-2.7,1.2-4.5,1.2ZM366.5,143.4c1.1,0,2-.3,2.7-.9.7-.6,1.3-1.4,1.7-2.5.4-1,.6-2.2.6-3.5v-.4c0-1.3-.2-2.5-.6-3.5-.4-1-.9-1.9-1.7-2.5s-1.7-.9-2.8-.9-2,.3-2.7.9-1.3,1.4-1.7,2.5c-.4,1-.6,2.2-.6,3.5v.4c0,1.3.2,2.5.6,3.5.4,1,.9,1.9,1.7,2.5.7.6,1.7.9,2.8.9Z"/>
    <path class="st0" d="M376.6,145.7v-2.2l2.8-.5v-13.4l-2.8-.5v-2.2h5.9l.2,2.5c.6-.9,1.4-1.6,2.3-2.1.9-.5,2.1-.7,3.3-.7s2.3.3,3.2.9c.9.6,1.6,1.4,2,2.6.6-1.1,1.4-1.9,2.3-2.5,1-.6,2.1-.9,3.4-.9,1.9,0,3.4.7,4.6,2,1.1,1.3,1.7,3.3,1.7,5.9v8.6l2.8.5v2.2h-9.1v-2.2l2.8-.5v-8.6c0-1.9-.3-3.2-1-3.9-.6-.8-1.6-1.2-2.8-1.2s-2.2.4-2.9,1.3c-.7.8-1.1,1.9-1.3,3.2v9.3l2.8.5v2.2h-9.1v-2.2l2.8-.5v-8.6c0-1.8-.3-3.1-1-3.9-.7-.8-1.6-1.2-2.8-1.2s-1.9.2-2.6.6c-.7.4-1.2,1-1.5,1.8v11.2l2.8.5v2.2h-9.1Z"/>
    <path class="st0" d="M418.3,146c-1.7,0-3.2-.4-4.5-1.2-1.3-.8-2.2-1.9-2.9-3.4-.7-1.4-1-3.1-1-4.9v-.4c0-1.9.3-3.5,1-4.9.7-1.4,1.7-2.6,2.9-3.4,1.3-.8,2.7-1.2,4.5-1.2s3.2.4,4.5,1.2c1.3.8,2.2,2,2.9,3.4.7,1.4,1,3.1,1,5v.4c0,1.9-.3,3.5-1,5-.7,1.4-1.7,2.6-2.9,3.4-1.3.8-2.7,1.2-4.5,1.2ZM418.3,143.4c1.1,0,2-.3,2.7-.9.7-.6,1.3-1.4,1.7-2.5.4-1,.6-2.2.6-3.5v-.4c0-1.3-.2-2.5-.6-3.5-.4-1-.9-1.9-1.7-2.5s-1.7-.9-2.8-.9-2,.3-2.7.9-1.3,1.4-1.7,2.5c-.4,1-.6,2.2-.6,3.5v.4c0,1.3.2,2.5.6,3.5.4,1,.9,1.9,1.7,2.5.7.6,1.7.9,2.8.9Z"/>
    <path class="st0" d="M435.3,146c-1.4,0-2.5-.4-3.3-1.2s-1.2-2.1-1.2-3.9v-11.4h-3v-2.5h3v-4.5h3.4v4.5h4.1v2.5h-4.1v11.4c0,.9.2,1.6.5,2,.4.4.8.6,1.4.6s.9,0,1.4-.1c.5,0,.9-.1,1.2-.2l.5,2.2c-.5.2-1.1.3-1.8.4-.7.1-1.4.2-2,.2Z"/>
    <path class="st0" d="M441.4,145.7v-2.2l2.8-.5v-13.4l-2.8-.5v-2.2h6.3v16.1l2.8.5v2.2h-9.1ZM444.1,122.2v-3.7h3.6v3.7h-3.6Z"/>
    <path class="st0" d="M460.4,146c-1.7,0-3.2-.4-4.5-1.2-1.3-.8-2.2-1.9-2.9-3.4-.7-1.4-1-3.1-1-4.9v-.4c0-1.9.3-3.5,1-4.9.7-1.4,1.7-2.6,2.9-3.4,1.3-.8,2.7-1.2,4.5-1.2s3.2.4,4.5,1.2c1.3.8,2.2,2,2.9,3.4.7,1.4,1,3.1,1,5v.4c0,1.9-.3,3.5-1,5-.7,1.4-1.7,2.6-2.9,3.4-1.3.8-2.7,1.2-4.5,1.2ZM460.4,143.4c1.1,0,2-.3,2.7-.9.7-.6,1.3-1.4,1.7-2.5.4-1,.6-2.2.6-3.5v-.4c0-1.3-.2-2.5-.6-3.5-.4-1-.9-1.9-1.7-2.5s-1.7-.9-2.8-.9-2,.3-2.7.9-1.3,1.4-1.7,2.5c-.4,1-.6,2.2-.6,3.5v.4c0,1.3.2,2.5.6,3.5.4,1,.9,1.9,1.7,2.5.7.6,1.7.9,2.8.9Z"/>
    <path class="st0" d="M470.4,145.7v-2.2l2.8-.5v-13.4l-2.8-.5v-2.2h5.9l.2,2.8c.6-1,1.4-1.8,2.4-2.3s2-.8,3.2-.8c2,0,3.6.6,4.7,1.8,1.1,1.2,1.7,3,1.7,5.5v9.2l2.8.5v2.2h-9.1v-2.2l2.8-.5v-9.1c0-1.7-.3-2.8-1-3.5-.7-.7-1.7-1-3-1s-1.9.2-2.6.7-1.4,1.1-1.8,1.9v11l2.8.5v2.2h-9.1Z"/>
  </g>
  <g>
    <path class="st0" d="M576.7,109.9c-6.6,0-11.9-1.8-15.8-5.3-3.9-3.6-5.9-8.4-5.9-14.6s2.6-11.4,7.7-15.4c5.1-3.9,12.6-5.9,22.4-5.9h8.8v-4.9c0-3.2-.9-5.8-2.8-7.8-1.9-2-4.7-3-8.4-3s-3.7.2-5.2.7c-1.5.5-2.9,1.1-4.2,2l-1.4,8.8h-13l-.2-17.4c3.5-2,7.3-3.6,11.4-4.8,4.1-1.2,8.6-1.9,13.7-1.9,8.7,0,15.6,2,20.7,6.1,5.1,4.1,7.6,9.9,7.6,17.4v27.6c0,.9,0,1.8,0,2.7,0,.9,0,1.7.2,2.6l7,1v10.8h-22.4c-.5-1.2-.9-2.4-1.4-3.7-.5-1.3-.8-2.6-1-4-2.1,2.7-4.7,4.9-7.6,6.5-2.9,1.6-6.3,2.4-10.2,2.4ZM581.6,96.5c2.5,0,4.9-.6,7.2-1.7s4-2.6,5.3-4.5v-10.6h-8.9c-4,0-7,.9-9,2.7-2,1.8-3.1,4-3.1,6.6s.8,4.2,2.3,5.5c1.5,1.3,3.6,1.9,6.3,1.9Z"/>
    <path class="st0" d="M624.2,108.6v-10.8l8.7-1.9V24.9l-9.6-1.9v-10.9h27.7v83.8l8.7,1.9v10.8h-35.5Z"/>
    <path class="st0" d="M664.4,108.6v-10.8l8.7-1.9V24.9l-9.6-1.9v-10.9h27.7v83.8l8.7,1.9v10.8h-35.5Z"/>
    <path class="st0" d="M728.5,109.9c-5.3,0-9.9-1.4-13.7-4.1-3.8-2.7-6.7-6.6-8.8-11.5-2-4.9-3-10.7-3-17.3v-1.3c0-7,1-13.2,3.1-18.5,2-5.3,5-9.4,8.8-12.3,3.8-2.9,8.3-4.4,13.6-4.4s6.9.7,9.6,2.2c2.8,1.5,5.2,3.5,7.2,6.2v-24l-9.6-1.9v-10.9h27.7v83.8l8.7,1.9v10.8h-24.3l-1.4-8.2c-2.1,3.1-4.6,5.4-7.5,7-2.9,1.6-6.3,2.4-10.3,2.4ZM733.9,95.8c2.5,0,4.7-.5,6.6-1.6,1.9-1.1,3.5-2.6,4.8-4.6v-28.4c-1.2-2.1-2.8-3.8-4.7-5-1.9-1.2-4.1-1.8-6.6-1.8s-5.5.9-7.4,2.7-3.3,4.3-4.2,7.5c-.9,3.2-1.3,6.9-1.3,11.1v1.3c0,5.9,1,10.5,3,13.8,2,3.4,5.3,5,9.8,5Z"/>
    <path class="st0" d="M776.7,108.6v-10.8l8.7-1.9v-41.5l-9.6-1.9v-10.9h27.7v54.2l8.7,1.9v10.8h-35.4ZM784.8,27.5v-15.4h18.7v15.4h-18.7Z"/>
    <path class="st0" d="M844.8,109.9c-5,0-9.6-.5-13.9-1.4-4.3-.9-8.4-2.3-12.4-4.1l-.2-18.9h12.6l2.4,9.6c1.4.7,2.9,1.3,4.6,1.7s3.6.6,5.7.6c4,0,6.9-.7,8.5-2,1.6-1.3,2.5-3,2.5-4.9s-.9-3.5-2.6-4.9c-1.8-1.4-5.2-2.7-10.5-3.7-7.9-1.6-13.8-4.2-17.5-7.7-3.8-3.5-5.6-7.9-5.6-13.3s.9-7.1,2.8-10.1c1.9-3.1,4.7-5.5,8.6-7.4,3.9-1.9,8.8-2.8,14.8-2.8s9.6.5,13.8,1.5c4.2,1,7.7,2.2,10.5,3.8l.2,18.3h-12.5l-1.9-8.8c-1.1-.8-2.4-1.4-3.9-1.9-1.5-.4-3.2-.6-5.1-.6-3.2,0-5.6.6-7.3,1.9-1.7,1.3-2.5,2.9-2.5,4.9s.3,2.2.9,3.2c.6,1,1.8,1.9,3.6,2.8,1.8.9,4.3,1.7,7.7,2.5,8.3,1.9,14.3,4.4,18.1,7.6,3.8,3.2,5.7,7.6,5.7,13.3s-2.3,11.3-6.8,15.1c-4.5,3.8-11.3,5.8-20.3,5.8Z"/>
  </g>
  <g>
    <path class="st0" d="M563.9,147.5c-1.5,0-2.8-.4-3.9-1.1s-1.9-1.8-2.5-3.2c-.6-1.4-.9-2.9-.9-4.7v-.4c0-2,.3-3.8.9-5.3.6-1.5,1.4-2.7,2.5-3.5,1.1-.8,2.4-1.3,4-1.3s2.1.2,2.9.6,1.6,1,2.2,1.8v-7.7l-2.8-.5v-2.2h6.3v24.4l2.8.5v2.2h-5.8l-.3-2.2c-.6.9-1.4,1.5-2.3,1.9-.9.4-1.9.7-3.1.7ZM564.8,144.7c1,0,1.9-.2,2.6-.7.7-.5,1.3-1.1,1.7-2v-8.7c-.4-.8-1-1.4-1.7-1.9-.7-.5-1.6-.7-2.5-.7s-2,.3-2.7.9-1.2,1.5-1.6,2.6-.5,2.4-.5,3.8v.4c0,1.9.4,3.4,1.2,4.6s2,1.7,3.6,1.7Z"/>
    <path class="st0" d="M585.3,147.5c-1.7,0-3.2-.4-4.5-1.2-1.3-.8-2.3-1.9-3-3.3s-1.1-3-1.1-4.9v-.8c0-1.8.4-3.4,1.1-4.8.7-1.4,1.7-2.5,2.9-3.3,1.2-.8,2.6-1.2,4-1.2s3.1.3,4.2,1c1.1.7,2,1.7,2.6,2.9.6,1.3.9,2.7.9,4.4v2.1h-12.3c0,1.3.2,2.4.6,3.3.4.9,1,1.7,1.7,2.2s1.7.8,2.7.8,2.2-.2,3.1-.5c.9-.3,1.6-.8,2.3-1.4l1.3,2.2c-.7.6-1.6,1.2-2.7,1.6-1.1.4-2.4.7-4,.7ZM580.4,135.8h8.7v-.5c0-.9-.2-1.7-.5-2.4-.3-.7-.8-1.3-1.4-1.7-.6-.4-1.4-.6-2.4-.6s-1.5.2-2.1.7-1.1,1.1-1.5,1.8-.7,1.6-.8,2.6h0Z"/>
    <path class="st0" d="M602.2,147.5c-1.3,0-2.4-.1-3.5-.4s-2.3-.6-3.5-1.2v-4.5s2.6,0,2.6,0l.6,2.7c.6.3,1.3.5,1.9.6.6.1,1.3.2,2,.2,1.4,0,2.4-.3,3-.8s.9-1.2.9-2-.3-1.4-.9-1.9c-.6-.5-1.7-1-3.3-1.3-2.3-.5-3.9-1.2-5-2.1-1.1-.9-1.6-2-1.6-3.5s.3-1.9.9-2.7c.6-.8,1.4-1.4,2.5-1.9,1.1-.5,2.3-.7,3.7-.7s2.6.2,3.7.5c1,.3,1.9.8,2.7,1.3l.2,4.3h-2.6l-.6-2.5c-.4-.3-.9-.5-1.4-.7-.6-.2-1.2-.2-1.9-.2-1.1,0-1.9.2-2.6.7-.7.5-1,1.1-1,1.9s0,.8.3,1.1c.2.3.6.6,1.1.9.5.3,1.3.5,2.4.8,2.6.6,4.4,1.4,5.5,2.3s1.6,2.1,1.6,3.5-.6,2.9-1.8,4c-1.2,1.1-3,1.6-5.6,1.6Z"/>
    <path class="st0" d="M611.8,147.1v-2.2l2.8-.5v-13.4l-2.8-.5v-2.2h6.3v16.1l2.8.5v2.2h-9.1ZM614.4,123.7v-3.7h3.6v3.7h-3.6Z"/>
    <path class="st0" d="M630.6,154.7c-.9,0-1.9-.1-2.9-.4-1.1-.2-2-.6-2.8-1l.9-2.7c.6.3,1.4.6,2.3.8.9.2,1.7.3,2.5.3,1.5,0,2.7-.4,3.4-1.3s1.1-2.1,1.1-3.7v-1.8c-.6.8-1.4,1.4-2.2,1.8s-1.8.6-3,.6-2.9-.4-4-1.1-2-1.8-2.6-3.2-.9-2.9-.9-4.7v-.4c0-2,.3-3.8.9-5.3.6-1.5,1.5-2.7,2.6-3.5,1.1-.8,2.4-1.3,4-1.3s2.2.2,3.1.7c.9.5,1.6,1.1,2.2,2l.3-2.4h2.9v18.6c0,1.6-.3,3-.9,4.2-.6,1.2-1.5,2.1-2.7,2.7-1.2.6-2.6.9-4.2.9ZM630.7,144.7c1,0,1.9-.2,2.6-.7.7-.5,1.3-1.1,1.7-2v-8.7c-.4-.8-1-1.4-1.7-1.9-.7-.5-1.6-.7-2.6-.7s-2,.3-2.7.9c-.7.6-1.3,1.5-1.6,2.6-.4,1.1-.5,2.4-.5,3.8v.4c0,1.9.4,3.4,1.2,4.6s2,1.7,3.7,1.7ZM637.9,131.1l-1.3-2.8h4.2v2.2l-2.9.6Z"/>
    <path class="st0" d="M642.7,147.1v-2.2l2.8-.5v-13.4l-2.8-.5v-2.2h5.9l.2,2.8c.6-1,1.4-1.8,2.4-2.3.9-.5,2-.8,3.2-.8,2,0,3.6.6,4.7,1.8,1.1,1.2,1.7,3,1.7,5.5v9.2l2.8.5v2.2h-9.1v-2.2l2.8-.5v-9.1c0-1.7-.3-2.8-1-3.5-.7-.7-1.7-1-3-1s-1.9.2-2.6.7c-.8.5-1.4,1.1-1.8,1.9v11l2.8.5v2.2h-9.1Z"/>
    <path class="st0" d="M683.2,147.5c-1.7,0-3.1-.3-4.4-.9s-2.2-1.5-2.9-2.5c-.7-1.1-1-2.3-1-3.7s.4-2.6,1.2-3.7,2-2.1,3.5-3.1c0,0,0,0,0,0,0,0,0,0,0,0-.9-1.1-1.6-2.2-2-3.1-.4-.9-.7-1.8-.7-2.8s.3-2.4.8-3.3c.5-.9,1.2-1.6,2.2-2.1,1-.5,2.1-.7,3.4-.7s2.3.2,3.2.7c.9.5,1.7,1.1,2.2,1.9.5.8.8,1.7.8,2.7s-.3,2.1-.9,2.9c-.6.8-1.5,1.7-2.7,2.5l-1.9,1.4,5.9,7.1c.5-.8.8-1.6,1.1-2.5s.4-1.9.4-2.9h3.1c0,1.5-.2,2.9-.7,4.2-.5,1.3-1.1,2.5-2,3.5l3.2,3.9h0c0,0-4,0-4,0l-1.5-1.8c-.9.7-2,1.2-3.1,1.6s-2.3.5-3.5.5ZM683.2,144.8c.8,0,1.7-.1,2.5-.4s1.6-.7,2.3-1.2l-6.3-7.6-.7.5c-1.1.8-1.8,1.5-2.1,2.3-.3.7-.5,1.4-.5,1.9,0,1.3.4,2.4,1.2,3.2.8.8,2,1.3,3.6,1.3ZM682.4,131.6l2.4-1.7c.7-.4,1.1-.9,1.3-1.4.2-.5.4-1.1.4-1.7s-.3-1.3-.8-1.9c-.6-.5-1.3-.8-2.2-.8s-1.7.3-2.2,1c-.5.7-.8,1.5-.8,2.4s.2,1.3.5,1.9c.3.7.8,1.4,1.4,2.2Z"/>
    <path class="st0" d="M705.7,154.3v-2.2l2.7-.5v-20.6l-2.8-.5v-2.2h5.8l.3,2.3c.6-.9,1.4-1.5,2.3-2,.9-.5,1.9-.7,3.1-.7s2.9.4,4,1.3c1.1.8,1.9,2,2.5,3.5.6,1.5.9,3.3.9,5.3v.4c0,1.8-.3,3.4-.9,4.7-.6,1.4-1.4,2.4-2.5,3.2s-2.4,1.1-3.9,1.1-2.2-.2-3.1-.6c-.9-.4-1.6-1-2.2-1.7v6.5l3,.5v2.2h-9.1ZM716,144.8c1.6,0,2.9-.6,3.7-1.8.8-1.2,1.3-2.7,1.3-4.6v-.4c0-1.4-.2-2.7-.6-3.8-.4-1.1-.9-2-1.7-2.6-.7-.6-1.7-.9-2.8-.9s-1.8.2-2.5.7-1.3,1-1.7,1.8v9.2c.4.8,1,1.4,1.7,1.8s1.5.6,2.5.6Z"/>
    <path class="st0" d="M726.1,147.1v-2.2l2.8-.5v-13.4l-2.8-.5v-2.2h5.9l.3,2.4v.3c.6-1,1.2-1.7,2-2.3.8-.5,1.7-.8,2.7-.8s.7,0,1.1,0c.4,0,.6.1.8.2l-.5,3.2h-2.4c-.9-.2-1.7,0-2.3.5-.6.5-1.1,1.1-1.4,1.9v10.7l2.8.5v2.2h-9.1Z"/>
    <path class="st0" d="M748.6,147.5c-1.7,0-3.2-.4-4.5-1.2-1.3-.8-2.2-1.9-2.9-3.4s-1-3.1-1-4.9v-.4c0-1.9.3-3.5,1-4.9s1.7-2.6,2.9-3.4c1.3-.8,2.7-1.2,4.5-1.2s3.2.4,4.5,1.2c1.3.8,2.2,2,2.9,3.4.7,1.4,1,3.1,1,5v.4c0,1.9-.3,3.5-1,5s-1.7,2.6-2.9,3.4-2.7,1.2-4.5,1.2ZM748.6,144.8c1.1,0,2-.3,2.7-.9.7-.6,1.3-1.4,1.7-2.5.4-1,.6-2.2.6-3.5v-.4c0-1.3-.2-2.5-.6-3.5-.4-1-.9-1.9-1.7-2.5s-1.7-.9-2.8-.9-2,.3-2.7.9c-.7.6-1.3,1.4-1.7,2.5s-.6,2.2-.6,3.5v.4c0,1.3.2,2.5.6,3.5.4,1,.9,1.9,1.7,2.5.7.6,1.7.9,2.8.9Z"/>
    <path class="st0" d="M758.6,147.1v-2.2l2.8-.5v-13.4l-2.8-.5v-2.2h5.9l.2,2.5c.6-.9,1.4-1.6,2.3-2.1,1-.5,2.1-.7,3.3-.7s2.3.3,3.2.9c.9.6,1.6,1.4,2,2.6.6-1.1,1.4-1.9,2.3-2.5s2.1-.9,3.4-.9c1.9,0,3.4.7,4.6,2s1.7,3.3,1.7,5.9v8.6l2.8.5v2.2h-9.1v-2.2l2.8-.5v-8.6c0-1.9-.3-3.2-1-3.9-.6-.8-1.6-1.2-2.8-1.2s-2.2.4-2.9,1.3c-.7.8-1.1,1.9-1.3,3.2v9.3l2.8.5v2.2h-9.1v-2.2l2.8-.5v-8.6c0-1.8-.3-3.1-1-3.9-.7-.8-1.6-1.2-2.8-1.2s-1.9.2-2.6.6c-.7.4-1.2,1-1.5,1.8v11.2l2.8.5v2.2h-9.1Z"/>
    <path class="st0" d="M800.3,147.5c-1.7,0-3.2-.4-4.5-1.2-1.3-.8-2.2-1.9-2.9-3.4s-1-3.1-1-4.9v-.4c0-1.9.3-3.5,1-4.9s1.7-2.6,2.9-3.4c1.3-.8,2.7-1.2,4.5-1.2s3.2.4,4.5,1.2c1.3.8,2.2,2,2.9,3.4.7,1.4,1,3.1,1,5v.4c0,1.9-.3,3.5-1,5s-1.7,2.6-2.9,3.4-2.7,1.2-4.5,1.2ZM800.3,144.8c1.1,0,2-.3,2.7-.9.7-.6,1.3-1.4,1.7-2.5.4-1,.6-2.2.6-3.5v-.4c0-1.3-.2-2.5-.6-3.5-.4-1-.9-1.9-1.7-2.5s-1.7-.9-2.8-.9-2,.3-2.7.9c-.7.6-1.3,1.4-1.7,2.5s-.6,2.2-.6,3.5v.4c0,1.3.2,2.5.6,3.5.4,1,.9,1.9,1.7,2.5.7.6,1.7.9,2.8.9Z"/>
    <path class="st0" d="M817.4,147.4c-1.4,0-2.5-.4-3.3-1.2s-1.2-2.1-1.2-3.9v-11.4h-3v-2.5h3v-4.5h3.4v4.5h4.1v2.5h-4.1v11.4c0,.9.2,1.6.5,2s.8.6,1.4.6.9,0,1.4-.1c.5,0,.9-.1,1.2-.2l.5,2.2c-.5.2-1.1.3-1.8.4-.7.1-1.4.2-2,.2Z"/>
    <path class="st0" d="M823.4,147.1v-2.2l2.8-.5v-13.4l-2.8-.5v-2.2h6.3v16.1l2.8.5v2.2h-9.1ZM826,123.7v-3.7h3.6v3.7h-3.6Z"/>
    <path class="st0" d="M842.4,147.5c-1.7,0-3.2-.4-4.5-1.2-1.3-.8-2.2-1.9-2.9-3.4s-1-3.1-1-4.9v-.4c0-1.9.3-3.5,1-4.9s1.7-2.6,2.9-3.4c1.3-.8,2.7-1.2,4.5-1.2s3.2.4,4.5,1.2c1.3.8,2.2,2,2.9,3.4.7,1.4,1,3.1,1,5v.4c0,1.9-.3,3.5-1,5s-1.7,2.6-2.9,3.4-2.7,1.2-4.5,1.2ZM842.4,144.8c1.1,0,2-.3,2.7-.9.7-.6,1.3-1.4,1.7-2.5.4-1,.6-2.2.6-3.5v-.4c0-1.3-.2-2.5-.6-3.5-.4-1-.9-1.9-1.7-2.5s-1.7-.9-2.8-.9-2,.3-2.7.9c-.7.6-1.3,1.4-1.7,2.5s-.6,2.2-.6,3.5v.4c0,1.3.2,2.5.6,3.5.4,1,.9,1.9,1.7,2.5.7.6,1.7.9,2.8.9Z"/>
    <path class="st0" d="M852.4,147.1v-2.2l2.8-.5v-13.4l-2.8-.5v-2.2h5.9l.2,2.8c.6-1,1.4-1.8,2.4-2.3.9-.5,2-.8,3.2-.8,2,0,3.6.6,4.7,1.8,1.1,1.2,1.7,3,1.7,5.5v9.2l2.8.5v2.2h-9.1v-2.2l2.8-.5v-9.1c0-1.7-.3-2.8-1-3.5-.7-.7-1.7-1-3-1s-1.9.2-2.6.7c-.8.5-1.4,1.1-1.8,1.9v11l2.8.5v2.2h-9.1Z"/>
  </g>
  <path class="st1" d="M-227.2-29.8h-117.9c-4.2,0-7.6,3.4-7.6,7.6v173.2c0,4.2,3.4,7.6,7.6,7.6h118.1c4.1,0,7.5-3.5,7.5-7.6V-22.2c0-4.2-3.4-7.6-7.6-7.6Z"/>
  <g>
    <path class="st1" d="M46.1,123.2c0-11.1,4.5-20.1,13.5-27,9-6.9,22.1-10.4,39.4-10.4h15.5v-8.7c0-5.6-1.6-10.2-4.9-13.7-3.3-3.5-8.2-5.3-14.8-5.3s-6.4.4-9.1,1.3c-2.7.8-5.1,2-7.4,3.5l-2.5,15.5h-22.8l-.4-30.5c6.2-3.5,12.8-6.3,20-8.5,7.2-2.2,15.2-3.3,24-3.3,15.4,0,27.5,3.6,36.4,10.7,8.9,7.1,13.4,17.3,13.4,30.6v57.7s8.2,1.1,8.2,1.1V14.5c0-4.5-3.7-8.2-8.2-8.2H14.2c-4.5,0-8.2,3.7-8.2,8.2v132c0,4.5,3.7,8.2,8.2,8.2h51.5c-3.5-1.5-6.6-3.5-9.3-6-6.9-6.3-10.3-14.8-10.3-25.6Z"/>
    <path class="st1" d="M115.5,142.4c-3.8,4.8-8.2,8.6-13.3,11.5-.5.3-1.1.6-1.7.9h18.7c-.7-1.7-1.3-3.5-2-5.4-.8-2.3-1.4-4.6-1.7-7Z"/>
    <path class="st1" d="M83.1,110c-3.6,3.2-5.4,7-5.4,11.5s1.3,7.4,4,9.7c2.6,2.3,6.3,3.4,11,3.4s8.6-1,12.6-3c4-2,7.1-4.6,9.2-7.9v-18.6h-15.6c-7,0-12.2,1.6-15.8,4.8Z"/>
  </g>
  <g>
    <path class="st0" d="M181.5,311.7c-.6-1.7-1-4.1-1-7-5.4,5.9-8.7,7.9-13.5,7.9-7.6,0-12.2-6-12.2-16s2.8-12.2,9.8-16.6c2.9-1.8,5.8-3.3,16-7.6v-3.1c0-6.2-1.7-8.6-5.9-8.6s-6.2,2.5-6.6,8.6h-11.8c1-12.1,8-18.5,20.1-18.5s9.5,1.5,12.3,4.6c2.5,3.1,3.3,5.9,3.3,13.3v26.7c0,9.1.2,11.8,1.3,16.3h-11.6ZM180.6,280.7c-9.9,5.3-13.9,9.5-13.9,15.1s2.4,6.8,5.7,6.8,6-1.9,8.2-5.4v-16.4Z"/>
    <path class="st0" d="M212.2,311.7h-11.2v-80.6h11.2v80.6Z"/>
    <path class="st0" d="M231.8,311.7h-11.2v-80.6h11.2v80.6Z"/>
    <path class="st0" d="M265.2,311.7v-5.9c-5,4.7-8.9,6.8-13.3,6.8s-7.7-2.2-9.7-6.2c-1.8-4.1-2.4-8.3-2.4-17.5v-14.4c0-9.2.6-13.4,2.4-17.5,1.9-4,5.3-6.2,9.7-6.2s8.3,2.1,13.3,6.8v-26.5h11.2v80.6h-11.2ZM265.2,263.7c-3-2.2-5.3-3-7.9-3s-4.4,1.2-5.2,3.1c-1,2.1-1.1,3.6-1.1,9.9v15.8c0,6.3.1,7.9,1.1,9.9.8,1.9,2.9,3.1,5.2,3.1s4.8-.8,7.9-3v-35.9Z"/>
    <path class="st0" d="M296.1,242.8h-11.2v-11.7h11.2v11.7ZM296.1,311.7h-11.2v-60.1h11.2v60.1Z"/>
    <path class="st0" d="M330.4,269.4c-2.3-6.3-5-8.7-9.3-8.7s-5.9,2.2-5.9,5.3,1.7,5,10.2,9.5c6.8,3.7,9.8,5.7,12.2,8.2,2.7,2.8,4.2,6.9,4.2,11.4,0,10.6-7.4,17.8-18.5,17.8s-16.7-5.3-20.5-16.9l10.5-3.6c2.4,7.4,5.3,10.3,10,10.3s6.4-2.5,6.4-6-1.9-5.6-8.5-9.1c-8.2-4.6-10.5-6.2-13.2-8.9-2.8-2.9-4.4-7-4.4-11.4,0-9.8,7.4-16.8,17.5-16.8s15.7,4.6,19.5,14.5l-10.3,4.5Z"/>
    <path class="st0" d="M168.6,359.4v-2.5c-2.1,2-3.7,2.8-5.5,2.8s-3.2-.9-4-2.6c-.8-1.7-1-3.5-1-7.3v-6c0-3.8.3-5.6,1-7.3.8-1.7,2.2-2.6,4-2.6s3.5.9,5.5,2.8v-11h4.7v33.6h-4.7ZM168.6,339.4c-1.3-.9-2.2-1.3-3.3-1.3s-1.8.5-2.2,1.3c-.4.9-.5,1.5-.5,4.1v6.6c0,2.6,0,3.3.5,4.1.4.8,1.2,1.3,2.2,1.3s2-.4,3.3-1.3v-15Z"/>
    <path class="st0" d="M181.6,347.7v2.2c0,4.4.8,5.7,3.2,5.7s2.4-.7,2.8-2.1c.2-.6.2-1,.2-2.8h4.7c0,3.4-.2,4.5-1,5.8-1.2,2.2-3.6,3.4-6.8,3.4s-5-.9-6.3-2.6c-1.1-1.6-1.6-3.4-1.6-6.8v-7.5c0-4,.5-5.6,2-7.2,1.4-1.3,3.3-2,5.7-2s4.6.8,5.9,2.3c1.4,1.6,1.9,3.4,1.9,7.4v4.1h-10.8ZM187.8,342.2c0-3-.9-4.2-3.1-4.2s-3.1,1.2-3.1,4.2v1.4h6.1v-1.4Z"/>
    <path class="st0" d="M207,341.8c-1-2.6-2.1-3.6-3.9-3.6s-2.5.9-2.5,2.2.7,2.1,4.2,4c2.8,1.6,4.1,2.4,5.1,3.4,1.1,1.2,1.8,2.9,1.8,4.7,0,4.4-3.1,7.4-7.7,7.4s-7-2.2-8.6-7.1l4.4-1.5c1,3.1,2.2,4.3,4.2,4.3s2.7-1.1,2.7-2.5-.8-2.3-3.5-3.8c-3.4-1.9-4.4-2.6-5.5-3.7-1.2-1.2-1.8-2.9-1.8-4.7,0-4.1,3.1-7,7.3-7s6.6,1.9,8.1,6l-4.3,1.9Z"/>
    <path class="st0" d="M219.5,330.7h-4.7v-4.9h4.7v4.9ZM219.5,359.4h-4.7v-25h4.7v25Z"/>
    <path class="st0" d="M241.1,339.1c-.6-.5-1-.7-1.6-.7s-1.3.3-1.9,1c.4,1.4.5,2.4.5,4.1,0,6.2-2.6,9.6-7.6,9.6s-1,0-1.8-.2c-.7.4-1.1.9-1.1,1.5s.4.9,1,1.1c.5.1,1.1.2,3.8.3,3.2.2,4.5.5,5.9,1.4,1.5,1,2.4,2.7,2.4,4.8,0,4.3-3.2,6.2-10,6.2s-8.7-1.5-8.7-4.5,1.2-3.2,3.9-4.1c-2.1-.9-2.9-1.8-2.9-3.3s1-2.9,3.9-3.9c-2.9-1.6-4.2-4.2-4.2-8.9s2.7-9.6,7.7-9.6,4.5.9,6.1,3.2c.6-2.3,1.9-3.2,4.4-3.1v5ZM227,362.3c0,1.5,1.3,2.1,4.6,2.1s4.8-.7,4.8-2.1-.6-1.5-2-1.7c-.7-.2-1.1-.2-3.7-.3-.7,0-1.3-.1-2.5-.3-.8.7-1.3,1.5-1.3,2.2ZM227.7,345c0,2.7.9,4,2.8,4s2.8-1.3,2.8-4v-2.8c0-2.8-.9-4.1-2.8-4.1s-2.8,1.3-2.8,4.1v2.8Z"/>
    <path class="st0" d="M248.5,337.6c2.2-2.5,4-3.6,6.2-3.6s4.1,1.9,4.1,5.8v19.5h-4.7v-18.3c0-2.2-.5-2.9-1.8-2.9s-2.7.9-3.8,2.5v18.7h-4.7v-25h4.7v3.2Z"/>
    <path class="st0" d="M290.3,344.4c-.2,3.1-1.1,5.9-2.7,8.4.7.9,1.9,1.7,3.4,2.1v5c-2.1-.1-4.5-1.4-6.3-3.3-2.3,2.3-4.1,3.2-6.6,3.2-4.3,0-7.7-3.6-7.7-8.3s1.3-5.9,4.5-9.6c-1.6-3.3-2.2-5.5-2.2-8.1,0-4.9,2.9-8.3,7-8.3s6.2,2.9,6.2,6.9-.7,3.9-2,5.8c-.8,1.2-1,1.4-3.4,4.3.9,2.1,2.6,5.1,3.8,6.5.8-1.6,1.2-2.9,1.4-5.2l4.5.6ZM275.6,350.8c0,2.2,1.4,4,3,4s2.1-.5,3.1-1.7c-1.8-1.8-3.4-4.2-4.5-6.8-1.2,1.7-1.6,3-1.6,4.5ZM281.3,331.5c0-1.7-.7-2.7-2-2.7s-2.2,1.3-2.2,3.4.4,3.7,1.3,5.8c1.9-2.2,2.9-4.4,2.9-6.5Z"/>
    <path class="st0" d="M307,334.4v2.5c2.1-2,3.7-2.8,5.5-2.8s3.2.9,4,2.6c.8,1.7,1,3.5,1,7.3v6c0,3.8-.3,5.6-1,7.3-.8,1.7-2.2,2.6-4,2.6s-3.5-.9-5.5-2.8v11h-4.7v-33.6h4.7ZM307,354.4c1.3.9,2.2,1.3,3.3,1.3s1.8-.5,2.2-1.3c.4-.9.5-1.5.5-4.1v-6.6c0-2.6,0-3.3-.5-4.1-.4-.8-1.2-1.3-2.2-1.3s-2.1.4-3.3,1.3v15Z"/>
    <path class="st0" d="M325.9,334.4v4.3c1.3-3.3,3.1-4.7,6-4.7v5.4c-.9-.4-1.5-.5-2.3-.5-1.3,0-2.3.5-2.9,1.3-.7.9-.8,1.7-.8,4v15.1h-4.7v-25h4.7Z"/>
    <path class="st0" d="M349.7,350.7c0,3.9-.5,5.6-2,7.2-1.4,1.3-3.3,2-5.7,2s-4.4-.7-5.7-2c-1.5-1.5-2-3.2-2-7.2v-7.7c0-3.9.5-5.6,2-7.2,1.4-1.3,3.3-2,5.7-2s4.3.7,5.7,2c1.5,1.5,2,3.2,2,7.2v7.7ZM339,351c0,3.2.9,4.6,3,4.6s3-1.4,3-4.6v-8.3c0-3.2-.9-4.6-3-4.6s-3,1.4-3,4.6v8.3Z"/>
    <path class="st0" d="M358.1,337.6c2.2-2.5,4-3.6,6.2-3.6s3.5,1.2,3.9,3.6c2.2-2.5,4.1-3.6,6.3-3.6s4.1,1.9,4.1,5.8v19.5h-4.7v-18.3c0-2.2-.5-2.9-1.8-2.9s-2.7.9-3.8,2.5v18.7h-4.7v-18.3c0-2.2-.5-2.9-1.8-2.9s-2.7.9-3.8,2.5v18.7h-4.7v-25h4.7v3.2Z"/>
    <path class="st0" d="M397.7,350.7c0,3.9-.5,5.6-2,7.2-1.4,1.3-3.3,2-5.7,2s-4.4-.7-5.7-2c-1.5-1.5-2-3.2-2-7.2v-7.7c0-3.9.5-5.6,2-7.2,1.4-1.3,3.3-2,5.7-2s4.3.7,5.7,2c1.5,1.5,2,3.2,2,7.2v7.7ZM387.1,351c0,3.2.9,4.6,3,4.6s3-1.4,3-4.6v-8.3c0-3.2-.9-4.6-3-4.6s-3,1.4-3,4.6v8.3Z"/>
    <path class="st0" d="M413,338.5h-4.3v13.4c0,2.5.9,3.6,2.9,3.6s1.1,0,1.8-.3v4.2c-1.3.3-2.1.4-3.2.4-2.4,0-4.1-.6-5.1-1.9-.9-1.1-1.2-2.3-1.2-5.5v-13.9h-3.6v-4.2h3.6v-6.9h4.7v6.9h4.3v4.2Z"/>
    <path class="st0" d="M420.8,330.7h-4.7v-4.9h4.7v4.9ZM420.8,359.4h-4.7v-25h4.7v25Z"/>
    <path class="st0" d="M439.8,350.7c0,3.9-.5,5.6-2,7.2-1.4,1.3-3.3,2-5.7,2s-4.4-.7-5.7-2c-1.5-1.5-2-3.2-2-7.2v-7.7c0-3.9.5-5.6,2-7.2,1.4-1.3,3.3-2,5.7-2s4.3.7,5.7,2c1.5,1.5,2,3.2,2,7.2v7.7ZM429.1,351c0,3.2.9,4.6,3,4.6s3-1.4,3-4.6v-8.3c0-3.2-.9-4.6-3-4.6s-3,1.4-3,4.6v8.3Z"/>
    <path class="st0" d="M448.1,337.6c2.2-2.5,4-3.6,6.2-3.6s4.1,1.9,4.1,5.8v19.5h-4.7v-18.3c0-2.2-.5-2.9-1.8-2.9s-2.7.9-3.8,2.5v18.7h-4.7v-25h4.7v3.2Z"/>
  </g>
  <rect class="st1" x="-797.2" y="-319.8" width="400.4" height="760.4"/>
</svg>