<?xml version="1.0" encoding="UTF-8"?>
<svg id="Layer_1" xmlns="http://www.w3.org/2000/svg" version="1.1" viewBox="0 0 192.8 191.8">
  <!-- Generator: Adobe Illustrator 30.2.0, SVG Export Plug-In . SVG Version: 2.1.1 Build 105)  -->
  <defs>
    <style>
      .st0 {
        fill: #ef4238;
      }
    </style>
  </defs>
  <path class="st0" d="M53.2,149.7c0-14,5.7-25.3,17-34.1,11.3-8.7,27.9-13.1,49.8-13.1h19.6v-11c0-7.1-2.1-12.9-6.2-17.3-4.2-4.4-10.4-6.7-18.7-6.7s-8.1.5-11.5,1.6c-3.4,1.1-6.5,2.5-9.3,4.5l-3.2,19.6h-28.8l-.5-38.5c7.8-4.4,16.2-8,25.2-10.7,9.1-2.7,19.2-4.1,30.3-4.1,19.4,0,34.7,4.5,45.9,13.5,11.2,9,16.9,21.9,16.9,38.6v72.9s10.3,1.4,10.3,1.4V12.5c0-5.7-4.6-10.3-10.3-10.3H13C7.3,2.2,2.7,6.8,2.7,12.5v166.6c0,5.7,4.6,10.3,10.3,10.3h65c-4.4-1.9-8.3-4.4-11.7-7.5-8.7-7.9-13-18.7-13-32.3Z"/>
  <path class="st0" d="M140.9,173.9c-4.8,6-10.4,10.9-16.8,14.5-.7.4-1.4.7-2.1,1.1h23.5c-.8-2.1-1.6-4.4-2.5-6.8-1-2.9-1.7-5.8-2.2-8.8Z"/>
  <path class="st0" d="M99.9,133.1c-4.5,4-6.8,8.9-6.8,14.5s1.7,9.4,5,12.3c3.3,2.9,8,4.3,13.9,4.3s10.9-1.3,15.9-3.8c5-2.5,8.9-5.8,11.7-9.9v-23.4h-19.7c-8.8,0-15.4,2-20,6Z"/>
</svg>