<?xml version="1.0" encoding="UTF-8"?>
<svg id="Layer_1" xmlns="http://www.w3.org/2000/svg" version="1.1" viewBox="0 0 137.3 191.8">
  <!-- Generator: Adobe Illustrator 30.2.0, SVG Export Plug-In . SVG Version: 2.1.1 Build 105)  -->
  <defs>
    <style>
      .st0 {
        fill: #ee3124;
      }
    </style>
  </defs>
  <path class="st0" d="M68.8,160c0,8.2,5,13.9,11.7,13.9s12.4-4,16.9-11.2v-33.9c-20.4,11-28.6,19.7-28.6,31.1Z"/>
  <path class="st0" d="M84.2,190.2h14.5c-.8-3.2-1.3-7.3-1.3-12-5.1,5.6-9.3,9.4-13.3,12Z"/>
  <path class="st0" d="M127.6,1.7H9.7c-4.2,0-7.6,3.4-7.6,7.6v173.2c0,4.2,3.4,7.6,7.6,7.6h46.1c-7.3-5.3-11.3-15.2-11.3-28.7s5.7-25.1,20.2-34.1c6-3.7,12-6.7,32.9-15.7v-6.5c0-12.7-3.5-17.7-12.2-17.7s-12.7,5.2-13.7,17.7h-24.4c2-24.9,16.4-38.1,41.3-38.1s19.7,3,25.4,9.5c5.2,6.5,6.7,12.2,6.7,27.4v55c0,17,.4,23.2,2.2,31.1h4.9c4.2,0,7.6-3.4,7.6-7.6V9.3c0-4.2-3.4-7.6-7.6-7.6Z"/>
</svg>